<svg width="32" height="32" viewBox="0 0 32 32" xmlns="http://www.w3.org/2000/svg">
  <!-- White background -->
  <rect width="32" height="32" fill="white"/>
  
  <!-- Binary columns background -->
  <g opacity="0.15" fill="#666" font-family="monospace" font-size="4" font-weight="bold">
    <!-- Column 1 -->
    <text x="2" y="6">1</text>
    <text x="2" y="11">0</text>
    <text x="2" y="16">1</text>
    <text x="2" y="21">1</text>
    <text x="2" y="26">0</text>
    <text x="2" y="31">1</text>
    
    <!-- Column 2 -->
    <text x="7" y="4">0</text>
    <text x="7" y="9">1</text>
    <text x="7" y="14">0</text>
    <text x="7" y="19">1</text>
    <text x="7" y="24">1</text>
    <text x="7" y="29">0</text>
    
    <!-- Column 3 -->
    <text x="12" y="6">1</text>
    <text x="12" y="11">1</text>
    <text x="12" y="16">0</text>
    <text x="12" y="21">0</text>
    <text x="12" y="26">1</text>
    <text x="12" y="31">1</text>
    
    <!-- Column 4 -->
    <text x="17" y="4">0</text>
    <text x="17" y="9">1</text>
    <text x="17" y="14">1</text>
    <text x="17" y="19">0</text>
    <text x="17" y="24">1</text>
    <text x="17" y="29">0</text>
    
    <!-- Column 5 -->
    <text x="22" y="6">1</text>
    <text x="22" y="11">0</text>
    <text x="22" y="16">1</text>
    <text x="22" y="21">1</text>
    <text x="22" y="26">0</text>
    <text x="22" y="31">1</text>
    
    <!-- Column 6 -->
    <text x="27" y="4">0</text>
    <text x="27" y="9">1</text>
    <text x="27" y="14">0</text>
    <text x="27" y="19">1</text>
    <text x="27" y="24">1</text>
    <text x="27" y="29">0</text>
  </g>
  
  <!-- 3D Cube in the center -->
  <g stroke="#333" stroke-width="1.5" stroke-linejoin="round">
    <!-- Front face -->
    <rect x="12" y="14" width="8" height="8" fill="#f0f0f0" stroke="#333"/>
    
    <!-- Top face (parallelogram) -->
    <path d="M12 14 L15 11 L23 11 L20 14 Z" fill="#e0e0e0" stroke="#333"/>
    
    <!-- Right face (parallelogram) -->
    <path d="M20 14 L23 11 L23 19 L20 22 Z" fill="#d0d0d0" stroke="#333"/>
    
    <!-- Back edges (hidden line style - dashed) -->
    <line x1="15" y1="11" x2="15" y2="19" stroke="#333" stroke-width="1" stroke-dasharray="2,1"/>
    <line x1="15" y1="19" x2="23" y2="19" stroke="#333" stroke-width="1" stroke-dasharray="2,1"/>
    <line x1="12" y1="22" x2="15" y2="19" stroke="#333" stroke-width="1" stroke-dasharray="2,1"/>
  </g>
</svg>